<svg viewBox="0 30 1000 360" xmlns="http://www.w3.org/2000/svg" >
	<!-- style="box-shadow: inset 0px 0px 0px 2px black;" -->
	<!-- Первая линия - темная, не приоритетная -->
	<path d="	
		M 0, 350
		l 20, 10 10, -20 0, 11
		l 10, -1 10, 2 30, 30 10, 5 10, -10
		v 10
		l 10, -5
		c 0, -5 10, -5 10, 0
		l 10, -5 20, -5 20, 6
		h 20
		l 10, -5 10, 5 10, -5  10, -2 10, -3
		v 5
		l 5, 5 5,-5 5, 5 5, -5 5, -15, 5, 5 5, -10 5, 5 
		10, -3 10, -2 10, 1 10, -2 10, 3 10, -4 20, 5 10, 10
		10, -5 10, 2 10, -10 10, -10 10, 2 10, -5 10, 20
		10, -50 5, 5 10, -50 5, 0 10, -50 10,-20 2, -30 3, 0
		0, 25 5, 30 30, 5 5, -80 5, 0 5, -40 10, 50 10, 50 10, 20 5, 0 
		5, -20 5, 20 5, 5 5, -10 5, -5 5, 0 5, -30 5, 30
		5, 5 5, 20 5, 0 5, 20, 5, 25 5, -5 5, -20 5, 35
		5, -5 5, 5 5, -15 5, 30 5, 0 5, 30 5, -50 5, -10 0, 10
		10, 20 5, -70 2, -15 5, -20 5, 70 5, -30 10, 30 5, -10  5, 20
		5, -5 5, 5 5, 6 5, -8 5, -20 5, 0 5, -20 5, 20 5, -10 5, -5
		5, 5 5, 0 5, 5 5, -10 5, 10 6, -10 4, 10 5, 10 5, -4 5, 10
		10, 0 10, 10 30, -100 10, -15 10, 20, 10, 10 10, -5 10, 30 1, -50 5, 10
		10, 1 10, -10 1, -10 10, 10 0, 10 10, -10 10, -20 10, 10 20, 20
		10, -5 5, -10 0, 5 5, 0 10, 20 10, 10 10, -10 5, 10 10, -10 10, 50 0, 30
		5, 0 1, -10 2, 5 5, -10 10, 20 4, -35" stroke="#641859" stroke-width="3" fill="none"/>
	<!-- Вторая линия - светлее, приоритетная -->
	<path d="	
		M 0, 300
		l 10, -1 10, 2 10, 5 10, -10
		v 10
		l 10, -5
		c 0, -5 10, -5 10, 0
		l 10, -5 20, -5 20, 6
		h 20
		l 10, -5 10, 5 10, -5  10, -2 10, -3
		v 5
		l 5, 5 5,-5 5, 5 5, -5 5, -15, 5, 5 5, -10 5, 5 
		10, -3 10, -2 10, 1 10, -2 10, 3 10, -4 20, 5 10, 10
		10, -5 10, 2 10, -10 10, -10 10, 2 10, -5 10, 20
		10, -50 5, 5 10, -50 5, 0 10, -50 10,-20 2, -30 3, 0
		0, 25 5, -35 5, 0 5, -40 10, 50 10, 20 5, 0 
		5, -20 5, 20 5, 5 5, -10 5, -5 5, 0 5, -30 5, 30
		5, 5 5, 20 5, 0 5, 20, 5, 25 5, -5 5, -20 5, 35
		5, -5 5, 5 5, -15 5, 30 5, 0 5, 30 5, -50 5, -10 0, 10
		10, 20 2, -15 5, -20 5, 70 5, -30 10, 30 5, -10  5, 20
		5, -5 5, 5 5, 6 5, -8 5, -20 5, 0 5, -20 5, 20 5, -10 5, -5
		5, 5 5, 0 5, 5 5, -10 5, 10 6, -10 4, 10 5, 10 5, -4 5, 10
		10, 0 10, 10 10, -15 10, 20, 10, 10 10, -5 10, 30 1, -50 5, 10
		10, 1 10, -10 1, -10 10, 10 0, 10 10, -10 10, -20 10, 10 20, 20
		10, -5 5, -10 0, 5 5, 0 10, 20 10, 10 10, -10 5, 10 10, -10 10, 50 0, 30
		5, 0 1, -10 2, 5 5, -10 10, 20 4, -35" stroke="#b82aa5" stroke-width="3" fill="none"/>
</svg>